<svg width="162" height="44" viewBox="0 0 162 44" fill="none" xmlns="http://www.w3.org/2000/svg">
<path d="M21.7597 32.9395C15.7818 32.9395 10.9397 28.0439 10.9397 22C10.9397 15.956 15.7818 11.0604 21.7597 11.0604L23.9715 8.82415L21.7597 6.58789C13.3907 6.58789 6.51611 13.478 6.51611 22C6.51611 30.522 13.3309 37.4121 21.7597 37.4121C30.1884 37.4121 37.0032 30.522 37.0032 22H32.5796C32.5796 28.0439 27.7375 32.9395 21.7597 32.9395Z" fill="#FF632E"/>
<path d="M39.0952 22C39.0952 31.6703 31.324 39.5275 21.7594 39.5275C12.1948 39.5275 4.42362 31.6703 4.42362 22C4.42362 12.3297 12.1948 4.47253 21.7594 4.47253L23.9712 2.23626L21.7594 0C9.74391 0 0 9.85165 0 22C0 34.1483 9.74391 44 21.7594 44C33.7749 44 43.5188 34.1483 43.5188 22H39.0952Z" fill="#FF632E"/>
<path d="M21.7594 17.6483L23.9712 15.412L21.7594 13.1758C16.9771 13.1758 13.0317 17.1044 13.0317 22C13.0317 26.8351 16.9173 30.8241 21.7594 30.8241C26.6015 30.8241 30.4871 26.8351 30.4871 22H26.0635C26.0635 24.4175 24.1506 26.3516 21.7594 26.3516C19.3683 26.3516 17.4554 24.4175 17.4554 22C17.4554 19.5824 19.3683 17.6483 21.7594 17.6483Z" fill="#FF632E"/>
<path d="M60.197 18.3734C57.6863 18.3734 55.6538 17.5272 54.0398 15.8954C52.4258 14.2635 51.5889 12.1481 51.5889 9.67009C51.5889 7.19207 52.4258 5.07669 54.0398 3.44482C55.594 1.81295 57.6863 0.966797 60.197 0.966797C61.6914 0.966797 63.0664 1.32943 64.3217 2.05471C65.5771 2.77998 66.5933 3.74702 67.3106 4.95581L63.6641 7.07119C63.3653 6.4668 62.887 6.04372 62.2295 5.68108C61.6317 5.31844 60.9143 5.19757 60.1372 5.19757C58.8221 5.19757 57.7461 5.62064 56.9092 6.4668C56.132 7.31295 55.7136 8.40086 55.7136 9.73053C55.7136 11.1206 56.132 12.2086 56.9092 12.9943C57.7461 13.8404 58.8221 14.2635 60.1372 14.2635C60.9143 14.2635 61.6317 14.0822 62.2295 13.78C62.8272 13.4173 63.3055 12.9943 63.6641 12.3899L67.3106 14.5657C66.5933 15.7745 65.5771 16.7415 64.3217 17.4668C63.0664 18.0108 61.6914 18.3734 60.197 18.3734Z" fill="#04033C"/>
<path d="M72.8101 18.0111H68.8647V0.604492H72.8101V18.0111Z" fill="#04033C"/>
<path d="M80.7608 18.3737C79.0273 18.3737 77.5328 17.7693 76.2775 16.5605C75.0221 15.3517 74.4243 13.8407 74.4243 12.088C74.4243 10.3352 75.0221 8.82422 76.2775 7.61543C77.5328 6.40664 79.0273 5.80225 80.7608 5.80225C82.4944 5.80225 83.9889 6.40664 85.2442 7.61543C86.4996 8.82422 87.0974 10.3352 87.0974 12.088C87.0974 13.8407 86.4996 15.3517 85.2442 16.5605C84.0487 17.7693 82.5542 18.3737 80.7608 18.3737ZM80.7608 14.5055C81.4782 14.5055 82.0162 14.2638 82.4944 13.8407C82.9726 13.3572 83.152 12.7528 83.152 12.0275C83.152 11.3022 82.9129 10.6979 82.4944 10.2143C82.076 9.73082 81.4782 9.5495 80.7608 9.5495C80.1033 9.5495 79.5055 9.79126 79.087 10.2748C78.6686 10.7583 78.4295 11.3627 78.4295 12.0275C78.4295 12.7528 78.6686 13.3572 79.087 13.7803C79.5653 14.3242 80.1033 14.5055 80.7608 14.5055Z" fill="#04033C"/>
<path d="M94.5102 18.3737C92.7168 18.3737 91.2223 17.7693 90.0268 16.5605C88.8312 15.3517 88.2334 13.8407 88.2334 12.088C88.2334 10.3352 88.8312 8.82422 90.0268 7.61543C91.2223 6.40664 92.7168 5.80225 94.5102 5.80225C95.6459 5.80225 96.722 6.10444 97.6784 6.6484C98.6349 7.19236 99.3522 7.97807 99.8902 8.88466L96.5426 10.8187C96.1242 10.033 95.4068 9.67038 94.5102 9.67038C93.8526 9.67038 93.3146 9.91214 92.8363 10.3352C92.4179 10.7583 92.1788 11.3627 92.1788 12.088C92.1788 12.8132 92.4179 13.4176 92.8363 13.8407C93.2548 14.3242 93.8526 14.5055 94.5102 14.5055C95.4666 14.5055 96.184 14.0825 96.5426 13.2968L99.8902 15.2308C99.3522 16.1979 98.6349 16.9231 97.6784 17.5275C96.722 18.0715 95.7057 18.3737 94.5102 18.3737Z" fill="#04033C"/>
<path d="M108.678 12.0274L112.802 18.0109H108.439L105.091 12.934V18.0109H101.146V1.32959H105.091V11.0604L108.14 6.04387H112.683L108.678 12.0274Z" fill="#04033C"/>
<path d="M125.834 12.571L127.388 6.104H131.513L127.926 18.0106H124.1L122.427 11.9666L120.753 18.0106H116.927L113.34 6.104H117.465L119.019 12.571L120.813 6.104H124.1L125.834 12.571Z" fill="#04033C"/>
<path d="M136.534 4.41208C136.116 4.83515 135.578 5.07691 134.98 5.07691C134.382 5.07691 133.844 4.83515 133.366 4.41208C132.948 3.92856 132.708 3.3846 132.708 2.78021C132.708 2.17581 132.948 1.63186 133.366 1.20878C133.844 0.785704 134.382 0.543945 134.98 0.543945C135.578 0.543945 136.116 0.785704 136.534 1.20878C137.013 1.63186 137.192 2.17581 137.192 2.78021C137.192 3.44504 136.953 3.989 136.534 4.41208ZM136.893 18.011H132.948V6.10438H136.893V18.011Z" fill="#04033C"/>
<path d="M142.871 9.54966C142.871 9.73098 143.05 9.9123 143.349 10.0332C143.707 10.1541 144.186 10.3354 144.903 10.4563C145.381 10.5771 145.8 10.698 146.218 10.8189C146.637 10.9398 146.995 11.1815 147.414 11.4837C147.832 11.7859 148.131 12.1486 148.37 12.6321C148.609 13.1156 148.729 13.6596 148.729 14.264C148.729 15.6541 148.251 16.6815 147.234 17.2859C146.218 17.9508 145.023 18.253 143.648 18.253C141.017 18.253 139.224 17.2859 138.387 15.4123L141.795 13.6596C142.093 14.5057 142.691 14.9892 143.648 14.9892C144.365 14.9892 144.724 14.7475 144.724 14.3244C144.724 14.1431 144.544 13.9618 144.246 13.8409C143.947 13.72 143.409 13.5387 142.691 13.3574C142.213 13.2365 141.795 13.1156 141.376 12.9343C141.017 12.753 140.599 12.5716 140.181 12.2694C139.762 12.0277 139.463 11.665 139.224 11.1815C138.985 10.7585 138.865 10.2145 138.865 9.6101C138.865 8.34087 139.344 7.37384 140.24 6.64857C141.197 5.92329 142.273 5.62109 143.588 5.62109C145.919 5.62109 147.533 6.52769 148.43 8.40131L145.142 9.9123C144.784 9.24747 144.305 8.88483 143.707 8.88483C143.11 9.00571 142.871 9.18703 142.871 9.54966Z" fill="#04033C"/>
<path d="M161.821 13.4779H153.691C154.109 14.4449 154.946 14.9284 156.321 14.9284C157.158 14.9284 157.875 14.6262 158.473 14.0823L161.283 16.0768C160.147 17.5273 158.413 18.313 156.201 18.313C154.229 18.313 152.615 17.7086 151.359 16.5603C150.164 15.3515 149.566 13.8405 149.566 12.0273C149.566 10.2141 150.164 8.70313 151.359 7.49434C152.555 6.28555 154.049 5.68115 155.843 5.68115C157.576 5.68115 159.071 6.28555 160.207 7.49434C161.342 8.64269 161.94 10.1537 161.94 11.9669C162 12.5713 161.94 13.0548 161.821 13.4779ZM153.631 10.7581H158.174C157.875 9.67016 157.158 9.06577 155.962 9.06577C154.707 9.06577 153.93 9.67016 153.631 10.7581Z" fill="#04033C"/>
<path d="M57.9853 42.9121C56.4909 42.9121 55.1757 42.5494 54.0997 41.8242C53.0237 41.0989 52.2466 40.1319 51.8281 38.8022L53.2628 37.956C53.5617 38.9835 54.0997 39.8297 54.9366 40.3736C55.7735 40.9176 56.7897 41.2198 58.0451 41.2198C59.2407 41.2198 60.1971 40.978 60.9145 40.4341C61.6318 39.8901 61.9307 39.1648 61.9307 38.2582C61.9307 37.4121 61.6318 36.7472 60.9742 36.2637C60.3765 35.8406 59.3005 35.3571 57.8658 34.8736C56.1322 34.2692 54.9964 33.8461 54.4584 33.4835C53.203 32.6978 52.5455 31.6099 52.5455 30.1593C52.5455 28.7692 53.0237 27.6209 54.0399 26.8352C54.9964 25.989 56.192 25.5659 57.6266 25.5659C58.882 25.5659 59.958 25.8681 60.9145 26.533C61.8709 27.1978 62.5883 28.0439 63.0665 29.1319L61.6916 29.9176C60.9145 28.0439 59.5993 27.1373 57.6266 27.1373C56.6104 27.1373 55.7735 27.3791 55.1159 27.9231C54.5182 28.467 54.1595 29.1319 54.1595 30.0384C54.1595 30.8846 54.4584 31.489 54.9964 31.9121C55.5942 32.3352 56.4909 32.7582 57.806 33.1813L59.0613 33.6044C59.3005 33.6648 59.7189 33.8461 60.1971 34.0275C60.7351 34.2088 61.0938 34.3901 61.3329 34.5714C62.1698 35.0549 62.7078 35.5385 62.8872 35.9615C63.3056 36.6264 63.4849 37.2912 63.4849 38.1374C63.4849 39.5275 62.9469 40.6758 61.9307 41.522C60.9742 42.489 59.6591 42.9121 57.9853 42.9121Z" fill="#04033C"/>
<path d="M76.2776 41.1592C75.082 42.368 73.5875 42.9724 71.9137 42.9724C70.1802 42.9724 68.6857 42.368 67.4901 41.1592C66.2946 39.9504 65.6968 38.4394 65.6968 36.6867C65.6968 34.934 66.2946 33.423 67.4901 32.2746C68.6857 31.0658 70.1802 30.4614 71.9137 30.4614C73.6473 30.4614 75.082 31.0658 76.2776 32.2746C77.4731 33.4834 78.0709 34.934 78.0709 36.6867C78.0709 38.4394 77.4731 39.89 76.2776 41.1592ZM68.5661 40.0109C69.4628 40.9175 70.5388 41.3405 71.854 41.3405C73.1691 41.3405 74.2451 40.9175 75.1418 40.0109C76.0385 39.0438 76.4569 37.9559 76.4569 36.6263C76.4569 35.2966 76.0385 34.2087 75.1418 33.3021C74.2451 32.3955 73.1691 31.912 71.854 31.912C70.5388 31.912 69.4628 32.3955 68.5661 33.3021C67.6695 34.2087 67.1912 35.2966 67.1912 36.6263C67.251 37.9559 67.6695 39.1043 68.5661 40.0109Z" fill="#04033C"/>
<path d="M86.1411 25.6263V27.1977C85.0053 27.0768 84.1684 27.3186 83.5706 27.8021C83.0326 28.2856 82.7337 29.1318 82.7337 30.2801V30.7637H86.1411V32.2747H82.7337V42.6703H81.1794V32.2142H79.147V30.7032H81.1794V30.2197C81.1794 28.6483 81.5979 27.4395 82.4946 26.6538C83.3315 25.8681 84.527 25.5054 86.1411 25.6263Z" fill="#04033C"/>
<path d="M94.5102 30.7031V32.2141H91.1028V39.4668C91.1028 40.1317 91.2224 40.5547 91.4615 40.8569C91.7006 41.1591 92.1191 41.28 92.5973 41.28C93.0755 41.28 93.7331 41.28 94.5102 41.2196V42.6097C92.8364 42.8514 91.5811 42.7306 90.7442 42.247C89.9073 41.7635 89.5486 40.7965 89.5486 39.4668V32.2141H87.0977V30.7031H89.5486V27.8624L91.1028 27.3789V30.7031H94.5102Z" fill="#04033C"/>
<path d="M108.379 40.6152L111.308 30.7031H112.922L109.276 42.6097H107.602L104.553 32.9998L101.504 42.6097H99.8306L96.1841 30.7031H97.7981L100.727 40.6152L103.836 30.7031H105.39L108.379 40.6152Z" fill="#04033C"/>
<path d="M124.937 33.0602V30.7031H126.492V42.6097H124.937V40.2525C123.861 42.0053 122.247 42.8514 120.155 42.8514C118.481 42.8514 117.047 42.247 115.851 41.0382C114.655 39.8294 114.058 38.3789 114.058 36.6261C114.058 34.8734 114.655 33.4229 115.851 32.2141C117.047 31.0053 118.481 30.4009 120.155 30.4009C122.247 30.4009 123.861 31.3075 124.937 33.0602ZM116.987 40.0108C117.883 40.9174 118.959 41.3404 120.275 41.3404C121.59 41.3404 122.666 40.9174 123.562 40.0108C124.459 39.0437 124.878 37.9558 124.878 36.6261C124.878 35.2965 124.459 34.2086 123.562 33.302C122.666 32.3954 121.59 31.9119 120.275 31.9119C118.959 31.9119 117.883 32.3954 116.987 33.302C116.09 34.2086 115.612 35.2965 115.612 36.6261C115.672 37.9558 116.09 39.1042 116.987 40.0108Z" fill="#04033C"/>
<path d="M131.334 30.7033V32.6978C132.051 31.2472 133.307 30.522 135.04 30.522V32.033C133.905 32.033 133.008 32.3352 132.35 33C131.693 33.6648 131.334 34.6319 131.334 35.9615V42.6099H129.78V30.7033H131.334Z" fill="#04033C"/>
<path d="M141.974 30.4009C143.708 30.4009 145.142 31.0053 146.218 32.2745C147.294 33.5437 147.832 34.9943 147.832 36.6866C147.832 36.747 147.832 36.9888 147.773 37.4119H137.431C137.61 38.6207 138.088 39.5877 138.925 40.2525C139.762 40.9778 140.838 41.3404 142.094 41.3404C143.887 41.3404 145.142 40.6756 145.919 39.2855L147.294 40.0712C146.756 40.9174 146.039 41.5822 145.142 42.0657C144.246 42.5492 143.229 42.791 142.094 42.791C140.241 42.791 138.746 42.1866 137.55 41.0382C136.415 39.8899 135.817 38.3789 135.817 36.5657C135.817 34.7525 136.415 33.302 137.55 32.0932C138.686 31.0053 140.121 30.4009 141.974 30.4009ZM141.974 31.9723C140.719 31.9723 139.703 32.3349 138.866 33.0602C138.029 33.7855 137.55 34.7525 137.371 35.9613H146.159C145.979 34.6921 145.501 33.7251 144.724 32.9998C143.947 32.2745 142.99 31.9723 141.974 31.9723Z" fill="#04033C"/>
</svg>
